// Untitled
// David William Hearn
// Created with StaffPad Editor

<global>
xfout_locc1=127
xfin_hicc1=127
ampeg_sustain=100
xfout_hicc1=127
ampeg_decay=0
xf_cccurve=gain
amp_veltrack=0
ampeg_attack=0
ampeg_release=0.25
xfin_locc1=0


<group>
group_label=Group


<region>
sample=Bassflute_turn_maj_PP_A#3.opus
hivel=127
key=A#3
lovel=0
offset=762

<region>
sample=Bassflute_turn_maj_PP_A#4.opus
hivel=127
key=A#4
lovel=0
offset=2706

<region>
sample=Bassflute_turn_maj_PP_A#5.opus
hivel=127
key=A#5
lovel=0
offset=1523

<region>
sample=Bassflute_turn_maj_PP_A3.opus
hivel=127
key=A3
lovel=0
offset=1942

<region>
sample=Bassflute_turn_maj_PP_A4.opus
hivel=127
key=A4
lovel=0
offset=1821

<region>
sample=Bassflute_turn_maj_PP_A5.opus
hivel=127
key=A5
lovel=0
offset=869

<region>
sample=Bassflute_turn_maj_PP_B3.opus
hivel=127
key=B3
lovel=0
offset=520

<region>
sample=Bassflute_turn_maj_PP_B4.opus
hivel=127
key=B4
lovel=0
offset=1380

<region>
sample=Bassflute_turn_maj_PP_C#3.opus
hivel=127
key=C#3
lovel=0
offset=3312

<region>
sample=Bassflute_turn_maj_PP_C#4.opus
hivel=127
key=C#4
lovel=0
offset=1589

<region>
sample=Bassflute_turn_maj_PP_C#5.opus
hivel=127
key=C#5
lovel=0
offset=770

<region>
sample=Bassflute_turn_maj_PP_C4.opus
hivel=127
key=C4
lovel=0
offset=1533

<region>
sample=Bassflute_turn_maj_PP_C5.opus
hivel=127
key=C5
lovel=0
offset=1217

<region>
sample=Bassflute_turn_maj_PP_D#3.opus
hivel=127
key=D#3
lovel=0

<region>
sample=Bassflute_turn_maj_PP_D#4.opus
hivel=127
key=D#4
lovel=0
offset=2633

<region>
sample=Bassflute_turn_maj_PP_D#5.opus
hivel=127
key=D#5
lovel=0
offset=3343

<region>
sample=Bassflute_turn_maj_PP_D3.opus
hivel=127
key=D3
lovel=0
offset=482

<region>
sample=Bassflute_turn_maj_PP_D4.opus
hivel=127
key=D4
lovel=0
offset=1101

<region>
sample=Bassflute_turn_maj_PP_D5.opus
hivel=127
key=D5
lovel=0
offset=1369

<region>
sample=Bassflute_turn_maj_PP_E3.opus
hivel=127
key=E3
lovel=0
offset=659

<region>
sample=Bassflute_turn_maj_PP_E4.opus
hivel=127
key=E4
lovel=0
offset=1812

<region>
sample=Bassflute_turn_maj_PP_E5.opus
hivel=127
key=E5
lovel=0
offset=2088

<region>
sample=Bassflute_turn_maj_PP_F#3.opus
hivel=127
key=F#3
lovel=0
offset=1568

<region>
sample=Bassflute_turn_maj_PP_F#4.opus
hivel=127
key=F#4
lovel=0
offset=518

<region>
sample=Bassflute_turn_maj_PP_F#5.opus
hivel=127
key=F#5
lovel=0
offset=1516

<region>
sample=Bassflute_turn_maj_PP_F3.opus
hivel=127
key=F3
lovel=0
offset=2532

<region>
sample=Bassflute_turn_maj_PP_F4.opus
hivel=127
key=F4
lovel=0
offset=486

<region>
sample=Bassflute_turn_maj_PP_F5.opus
hivel=127
key=F5
lovel=0
offset=919

<region>
sample=Bassflute_turn_maj_PP_G#3.opus
hivel=127
key=G#3
lovel=0
offset=918

<region>
sample=Bassflute_turn_maj_PP_G#4.opus
hivel=127
key=G#4
lovel=0
offset=1938

<region>
sample=Bassflute_turn_maj_PP_G#5.opus
hivel=127
key=G#5
lovel=0

<region>
sample=Bassflute_turn_maj_PP_G3.opus
hivel=127
key=G3
lovel=0
offset=770

<region>
sample=Bassflute_turn_maj_PP_G4.opus
hivel=127
key=G4
lovel=0
offset=837

<region>
sample=Bassflute_turn_maj_PP_G5.opus
hivel=127
key=G5
lovel=0
offset=2117

